<svg xmlns="http://www.w3.org/2000/svg" version="1.1" xmlns:xlink="http://www.w3.org/1999/xlink" xmlns:svgjs="http://svgjs.dev/svgjs" width="100%" height="100%" viewBox="0 0 1000 600"><rect width="1000" height="600" x="0" y="0" fill="#f4a950"/><g><rect width="333.3333333333333" height="333.3333333333333" y="109.39193874572636" fill="#161b21" transform="matrix(1.4339840448269388,0,0,1.4339840448269388,0,-95.86365590783313)" x="87.16973114013672"/><path d="M247.0479885461597 233.63106455099586L247.0479885461597 318.5159312743605Q247.0479885461597 321.96968242831014 246.92889367878212 325.57230216648173Q246.83957252824896 329.2046956214977 246.03568217345034 332.59889934175845Q245.26156553549612 335.9931030620193 243.6537848258989 338.9704747464586Q242.01623039945727 341.94784643089787 239.03885871501797 344.151101477383Q236.06148703057866 346.3543565238681 231.38701348600895 347.66440006502137Q226.74231365828362 348.9744436061747 220.04322736829516 348.9744436061747L220.04322736829516 348.9744436061747L200.66053770259526 348.9744436061747L200.66053770259526 203.1725522191818L220.04322736829516 203.1725522191818Q226.74231365828362 203.1725522191818 231.38701348600895 204.4230483266463Q236.06148703057866 205.6735444341108 239.03885871501797 207.93634691428468Q242.01623039945727 210.16937567761414 243.6537848258989 213.14674736205347Q245.26156553549612 216.15389276333715 246.03568217345034 219.48854904990918Q246.83957252824896 222.8529790533256 246.92889367878212 226.51514622518593Q247.0479885461597 230.1773133970463 247.0479885461597 233.63106455099586L247.0479885461597 233.63106455099586ZM239.18772729923992 322.0590035788433L239.18772729923992 230.1773133970463Q239.18772729923992 224.31189117870088 237.93723119177542 220.44130798892976Q236.6867350843109 216.57072479915865 234.0666480020043 214.3079223189848Q231.4465609196977 212.0748935556553 227.42710914570466 211.12213461663475Q223.3778836548672 210.16937567761414 217.72087745443253 210.16937567761414L217.72087745443253 210.16937567761414L208.52079894951504 210.16937567761414L208.52079894951504 341.94784643089787L217.72087745443253 341.94784643089787Q223.3778836548672 341.94784643089787 227.42710914570466 341.0844086424105Q231.4465609196977 340.19119713707875 234.0666480020043 337.9283946569048Q236.6867350843109 335.69536589357534 237.93723119177542 331.7950089869599Q239.18772729923992 327.92442579718875 239.18772729923992 322.0590035788433L239.18772729923992 322.0590035788433ZM268.5148383909671 305.65368559758275L268.5148383909671 328.13284181509954Q268.5148383909671 331.5865929690491 269.6462396310541 334.47464350295525Q270.80741458798536 337.36269403686134 272.8022536165597 339.5064016496577Q274.7673189282897 341.650109262454 277.5660483116626 342.8410579362297Q280.33500397819114 344.0617803268498 283.66966026476314 344.0617803268498L283.66966026476314 344.0617803268498Q287.24250628609036 344.0617803268498 290.07100938630765 342.8112842193853Q292.89951248652505 341.5310143950764 294.9241252319438 339.38730678228006Q296.9785116942069 337.2435991694838 298.0801392174494 334.38532235242207Q299.18176674069196 331.4972718185159 299.18176674069196 328.13284181509954L299.18176674069196 328.13284181509954L299.18176674069196 292.5532501860498Q299.18176674069196 288.89108301418946 297.6930808984723 285.6457478781506Q296.23416877309705 282.40041274211177 293.79272399185686 279.36349362398363Q291.3215054937722 276.32657450585555 288.16549150826654 273.4980714056382Q285.0392512396053 270.6695683054209 281.7939161035664 267.9601600725811L281.7939161035664 267.9601600725811Q277.9233329137953 264.71482493654224 274.112297157713 261.35039493312587Q270.2714876847863 258.0157386465538 267.294116000347 254.2344766073159Q264.3167443159077 250.48298828492238 262.4707738715553 246.19557305932977Q260.6545771440474 241.90815783373716 260.6545771440474 236.667983669124L260.6545771440474 236.667983669124L260.6545771440474 223.89505914287935Q260.6545771440474 218.86330099617692 262.4707738715553 214.6354332042731Q264.3167443159077 210.3777916955249 267.442984584569 207.4004200110856Q270.5989985700746 204.4230483266463 274.82686636197843 202.75572018336027Q279.0845078707266 201.05861832322987 283.78875513214075 201.05861832322987L283.78875513214075 201.05861832322987Q288.82051327884324 201.05861832322987 293.04838107074704 202.84504133389345Q297.27624886265085 204.63146434455706 300.4322628481565 207.72793089637392Q303.55850311681775 210.7946237313464 305.28537869379255 214.93317037271703Q307.01225427076736 219.07171701408768 307.01225427076736 223.89505914287935L307.01225427076736 223.89505914287935L307.01225427076736 245.36190898768677L299.18176674069196 245.36190898768677L299.18176674069196 223.98438029341256Q299.18176674069196 220.53062913946295 298.02059178376066 217.6723523224012Q296.8594168268293 214.78430178849507 294.86457779825497 212.64059417569877Q292.89951248652505 210.4968865629025 290.07100938630765 209.27616417228234Q287.24250628609036 208.0852154985066 283.9971711500515 208.0852154985066L283.9971711500515 208.0852154985066Q280.4243251287244 208.0852154985066 277.5660483116626 209.33571160597114Q274.67799777775645 210.58620771343567 272.6831587491821 212.72991532623195Q270.68831972060775 214.87362293902825 269.5866921973652 217.76167347293438Q268.5148383909671 220.6497240068405 268.5148383909671 223.98438029341256L268.5148383909671 223.98438029341256L268.5148383909671 236.667983669124Q268.5148383909671 240.53856685889508 270.06307166687554 243.93277057915589Q271.6410786596284 247.3269742994167 274.2016183082462 250.42344085123358Q276.76215795686403 253.51990740305047 280.0074930929028 256.3484105032678Q283.25282822894167 259.17691360348516 286.61725823235815 262.0054167037025L286.61725823235815 262.0054167037025Q290.3687465547516 265.13165697236377 294.03091372661197 268.4663132589358Q297.6930808984723 271.8307432623522 300.58113143237847 275.61200530159016Q303.46918196628457 279.36349362398363 305.2556049769481 283.56158769904306Q307.01225427076736 287.7299080572581 307.01225427076736 292.5532501860498L307.01225427076736 292.5532501860498L307.01225427076736 328.2519366824771Q307.01225427076736 333.2836948291795 305.19605754325937 337.4520151873946Q303.350087098907 341.650109262454 300.22384683024575 344.68702838058203Q297.0678328447401 347.7239474987102 292.8399650528362 349.3912756419962Q288.61209726093244 351.0586037852822 283.78875513214075 351.0586037852822L283.78875513214075 351.0586037852822Q278.7569969854383 351.0586037852822 274.52912919353446 349.301954491463Q270.2714876847863 347.51553148079944 267.2047948498138 344.4786123626713Q264.10832829799693 341.4416932445432 262.38145272102213 337.2435991694838Q260.6545771440474 333.0752788112688 260.6545771440474 328.2519366824771L260.6545771440474 328.2519366824771L260.6545771440474 305.65368559758275L268.5148383909671 305.65368559758275Z " fill="#f4a950" transform="matrix(1.4339840448269388,0,0,1.4339840448269388,0,-95.86365590783313)"/><path d="M550.223846090105 233.63106455099586L550.223846090105 318.5159312743605Q550.223846090105 321.96968242831014 550.1047512227274 325.57230216648173Q550.0154300721942 329.2046956214977 549.2115397173957 332.59889934175845Q548.4374230794415 335.9931030620193 546.8296423698441 338.9704747464586Q545.1920879434026 341.94784643089787 542.2147162589633 344.151101477383Q539.237344574524 346.3543565238681 534.5628710299543 347.66440006502137Q529.9181712022289 348.9744436061747 523.2190849122405 348.9744436061747L523.2190849122405 348.9744436061747L503.8363952465406 348.9744436061747L503.8363952465406 203.1725522191818L523.2190849122405 203.1725522191818Q529.9181712022289 203.1725522191818 534.5628710299543 204.4230483266463Q539.237344574524 205.6735444341108 542.2147162589633 207.93634691428468Q545.1920879434026 210.16937567761414 546.8296423698441 213.14674736205347Q548.4374230794415 216.15389276333715 549.2115397173957 219.48854904990918Q550.0154300721942 222.8529790533256 550.1047512227274 226.51514622518593Q550.223846090105 230.1773133970463 550.223846090105 233.63106455099586L550.223846090105 233.63106455099586ZM542.3635848431852 322.0590035788433L542.3635848431852 230.1773133970463Q542.3635848431852 224.31189117870088 541.1130887357208 220.44130798892976Q539.8625926282562 216.57072479915865 537.2425055459496 214.3079223189848Q534.622418463643 212.0748935556553 530.60296668965 211.12213461663475Q526.5537411988125 210.16937567761414 520.8967349983778 210.16937567761414L520.8967349983778 210.16937567761414L511.69665649346035 210.16937567761414L511.69665649346035 341.94784643089787L520.8967349983778 341.94784643089787Q526.5537411988125 341.94784643089787 530.60296668965 341.0844086424105Q534.622418463643 340.19119713707875 537.2425055459496 337.9283946569048Q539.8625926282562 335.69536589357534 541.1130887357208 331.7950089869599Q542.3635848431852 327.92442579718875 542.3635848431852 322.0590035788433L542.3635848431852 322.0590035788433ZM571.6906959349124 305.65368559758275L571.6906959349124 328.13284181509954Q571.6906959349124 331.5865929690491 572.8220971749993 334.47464350295525Q573.9832721319307 337.36269403686134 575.978111160505 339.5064016496577Q577.943176472235 341.650109262454 580.7419058556079 342.8410579362297Q583.5108615221365 344.0617803268498 586.8455178087086 344.0617803268498L586.8455178087086 344.0617803268498Q590.4183638300357 344.0617803268498 593.246866930253 342.8112842193853Q596.0753700304704 341.5310143950764 598.0999827758891 339.38730678228006Q600.1543692381522 337.2435991694838 601.2559967613947 334.38532235242207Q602.3576242846373 331.4972718185159 602.3576242846373 328.13284181509954L602.3576242846373 328.13284181509954L602.3576242846373 292.5532501860498Q602.3576242846373 288.89108301418946 600.8689384424176 285.6457478781506Q599.4100263170424 282.40041274211177 596.9685815358022 279.36349362398363Q594.4973630377175 276.32657450585555 591.3413490522119 273.4980714056382Q588.2151087835506 270.6695683054209 584.9697736475117 267.9601600725811L584.9697736475117 267.9601600725811Q581.0991904577406 264.71482493654224 577.2881547016583 261.35039493312587Q573.4473452287316 258.0157386465538 570.4699735442923 254.2344766073159Q567.492601859853 250.48298828492238 565.6466314155007 246.19557305932977Q563.8304346879927 241.90815783373716 563.8304346879927 236.667983669124L563.8304346879927 236.667983669124L563.8304346879927 223.89505914287935Q563.8304346879927 218.86330099617692 565.6466314155007 214.6354332042731Q567.492601859853 210.3777916955249 570.6188421285143 207.4004200110856Q573.7748561140199 204.4230483266463 578.0027239059237 202.75572018336027Q582.2603654146719 201.05861832322987 586.9646126760861 201.05861832322987L586.9646126760861 201.05861832322987Q591.9963708227885 201.05861832322987 596.2242386146922 202.84504133389345Q600.4521064065962 204.63146434455706 603.6081203921018 207.72793089637392Q606.7343606607631 210.7946237313464 608.4612362377378 214.93317037271703Q610.1881118147127 219.07171701408768 610.1881118147127 223.89505914287935L610.1881118147127 223.89505914287935L610.1881118147127 245.36190898768677L602.3576242846373 245.36190898768677L602.3576242846373 223.98438029341256Q602.3576242846373 220.53062913946295 601.196449327706 217.6723523224012Q600.0352743707746 214.78430178849507 598.0404353422002 212.64059417569877Q596.0753700304704 210.4968865629025 593.246866930253 209.27616417228234Q590.4183638300357 208.0852154985066 587.1730286939968 208.0852154985066L587.1730286939968 208.0852154985066Q583.6001826726697 208.0852154985066 580.7419058556079 209.33571160597114Q577.8538553217018 210.58620771343567 575.8590162931275 212.72991532623195Q573.8641772645531 214.87362293902825 572.7625497413105 217.76167347293438Q571.6906959349124 220.6497240068405 571.6906959349124 223.98438029341256L571.6906959349124 223.98438029341256L571.6906959349124 236.667983669124Q571.6906959349124 240.53856685889508 573.2389292108209 243.93277057915589Q574.8169362035737 247.3269742994167 577.3774758521915 250.42344085123358Q579.9380155008093 253.51990740305047 583.1833506368481 256.3484105032678Q586.428685772887 259.17691360348516 589.7931157763035 262.0054167037025L589.7931157763035 262.0054167037025Q593.5446040986969 265.13165697236377 597.2067712705573 268.4663132589358Q600.8689384424176 271.8307432623522 603.7569889763238 275.61200530159016Q606.6450395102298 279.36349362398363 608.4314625208934 283.56158769904306Q610.1881118147127 287.7299080572581 610.1881118147127 292.5532501860498L610.1881118147127 292.5532501860498L610.1881118147127 328.2519366824771Q610.1881118147127 333.2836948291795 608.3719150872047 337.4520151873946Q606.5259446428523 341.650109262454 603.3997043741911 344.68702838058203Q600.2436903886854 347.7239474987102 596.0158225967816 349.3912756419962Q591.7879548048777 351.0586037852822 586.9646126760861 351.0586037852822L586.9646126760861 351.0586037852822Q581.9328545293836 351.0586037852822 577.7049867374799 349.301954491463Q573.4473452287316 347.51553148079944 570.3806523937592 344.4786123626713Q567.2841858419422 341.4416932445432 565.5573102649674 337.2435991694838Q563.8304346879927 333.0752788112688 563.8304346879927 328.2519366824771L563.8304346879927 328.2519366824771L563.8304346879927 305.65368559758275L571.6906959349124 305.65368559758275Z " fill="#161b21" transform="matrix(1.4339840448269388,0,0,1.4339840448269388,0,-95.86365590783313)"/></g></svg>